<svg width="35" height="35" viewBox="0 0 35 35" fill="none" xmlns="http://www.w3.org/2000/svg">
<path fill-rule="evenodd" clip-rule="evenodd" d="M17.5 35C27.165 35 35 27.165 35 17.5C35 7.83502 27.165 0 17.5 0C7.83502 0 0 7.83502 0 17.5C0 27.165 7.83502 35 17.5 35ZM24.6293 14.5436L17.5 21.2535L10.3707 14.5436C9.56638 13.7866 8.30063 13.8249 7.5436 14.6293C6.78657 15.4336 6.82492 16.6994 7.62927 17.4564L15.4439 24.8113C16.5991 25.8986 18.4009 25.8986 19.5561 24.8114L27.3707 17.4564C28.1751 16.6994 28.2134 15.4336 27.4564 14.6293C26.6994 13.8249 25.4336 13.7866 24.6293 14.5436Z" fill="white"/>
</svg>
