<svg width="84" height="40" viewBox="0 0 84 40" fill="none" xmlns="http://www.w3.org/2000/svg">
<path fill-rule="evenodd" clip-rule="evenodd" d="M46.4317 4.20201L46.0778 3.48092L33.5064 9.0835C26.0076 12.4254 17.2005 9.41503 13.3164 2.18216L12.8364 1.28842C15.0301 0.455817 17.4092 0 19.8947 0H64.1053C75.0928 0 84 8.90718 84 19.8947C84 30.8823 75.0928 39.7895 64.1053 39.7895H31.3798L27.4186 30.9133C24.0728 23.4162 27.0787 14.6076 34.3096 10.7198L46.4317 4.20201ZM11.6664 2.99204L11.2178 1.98687C4.57766 5.21019 0 12.0179 0 19.8947C0 21.7852 0.263675 23.6141 0.756255 25.3466L4.77537 23.1856C12.0063 19.2977 15.0122 10.4892 11.6664 2.99204ZM19.8947 39.7895C11.3219 39.7895 4.01559 34.3672 1.21818 26.7651L5.57851 24.8219C13.0773 21.4799 21.8844 24.4903 25.7685 31.7232L30.1002 39.7895H19.8947ZM51.6459 7.23444C49.7591 7.23444 48.2296 8.76396 48.2296 10.6507C48.2296 12.5375 49.7591 14.067 51.6459 14.067H66.1148C68.0015 14.067 69.531 12.5375 69.531 10.6507C69.531 8.76396 68.0015 7.23444 66.1148 7.23444H51.6459ZM42.6028 20.2966C42.6028 18.4099 44.1323 16.8804 46.0191 16.8804H54.8612C56.7479 16.8804 58.2775 18.4099 58.2775 20.2966C58.2775 22.1834 56.7479 23.7129 54.8612 23.7129H46.0191C44.1323 23.7129 42.6028 22.1834 42.6028 20.2966ZM39.9904 26.5263C38.1036 26.5263 36.5741 28.0558 36.5741 29.9426C36.5741 31.8293 38.1036 33.3588 39.9904 33.3588H66.1148C68.0015 33.3588 69.531 31.8293 69.531 29.9426C69.531 28.0558 68.0015 26.5263 66.1148 26.5263H39.9904Z" fill="black"/>
</svg>
